# AST/ASF file generated using VICON BodyLanguage
# -----------------------------------------------
:version 1.10
:name VICON
:units
  mass 1.0
  length 0.45
  angle deg
:documentation
   .ast/.asf automatically generated from VICON data using
   VICON BodyBuilder and BodyLanguage model FoxedUp or BRILLIANT.MOD
:root
   order TX TY TZ RX RY RZ
   axis XYZ
   position 0 0 0  
   orientation 0 0 0 
:bonedata
  begin
     id 1 
     name lhipjoint
     direction 0.710188 -0.616876 0.339259 
     length 2.5669 
     axis 0 0 0  XYZ
  end
  begin
     id 2 
     name lfemur
     direction 0.34202 -0.939693 0  
     length 7.12796  
     axis 0 0 20  XYZ
    dof rx ry rz
    limits (-160.0 20.0)
           (-70.0 70.0)
           (-60.0 70.0)
  end
  begin
     id 3 
     name ltibia
     direction 0.34202 -0.939693 0   
     length 7.58108   
     axis 0 0 20   XYZ
    dof rx
    limits (-10.0 170.0)
  end
  begin
     id 4 
     name lfoot
     direction 0.0669471 -0.183936 0.980656   
     length 2.17365   
     axis -90 7.62852e-016 20   XYZ
    dof rx rz
    limits (-45.0 90.0)
           (-70.0 20.0)
  end
  begin
     id 5 
     name ltoes
     direction 1.53508e-011 -4.21705e-011 1   
     length 1.09427   
     axis -90 7.62852e-016 20   XYZ
    dof rx
    limits (-90.0 20.0)
  end
  begin
     id 6 
     name rhipjoint
     direction -0.700191 -0.625589 0.34405   
     length 2.53115  
     axis 0 0 0  XYZ 
  end
  begin
     id 7 
     name rfemur
     direction -0.34202 -0.939693 0   
     length 7.33006   
     axis 0 0 -20   XYZ
    dof rx ry rz
    limits (-160.0 20.0)
           (-70.0 70.0)
           (-70.0 60.0)
  end
  begin
     id 8 
     name rtibia
     direction -0.34202 -0.939693 0   
     length 7.64926   
     axis 0 0 -20   XYZ
    dof rx
    limits (-10.0 170.0)
 end
 begin
     id 9 
     name rfoot
     direction -0.0688927 -0.189281 0.979503   
     length 2.20493  
     axis -90 -7.62852e-016 -20   XYZ
    dof rx rz
    limits (-45.0 90.0)
           (-20.0 70.0)
  end
  begin
     id 10 
     name rtoes
     direction -1.53567e-011 -4.21933e-011 1   
     length 1.10919   
     axis -90 -7.62852e-016 -20   XYZ
    dof rx
    limits (-90.0 20.0)
  end
  begin
     id 11 
     name lowerback
     direction -0.0167868 0.989873 -0.140959   
     length 2.14596   
     axis 0 0 0   XYZ
    dof rx ry rz
    limits (-20.0 45.0)
           (-30.0 30.0)
           (-30.0 30.0)
  end
  begin
     id 12 
     name upperback
     direction 0.0129109 0.998033 0.0613525   
     length 2.10457   
     axis 0 0 0   XYZ
    dof rx ry rz
    limits (-20.0 45.0)
           (-30.0 30.0)
           (-30.0 30.0)
  end
  begin
     id 13 
     name thorax
     direction 0.0177047 0.991119 0.131797   
     length 2.17652   
     axis 0 0 0   XYZ
    dof rx ry rz
    limits (-20.0 45.0)
           (-30.0 30.0)
           (-30.0 30.0)
  end
  begin
     id 14 
     name lowerneck
     direction -0.0336893 0.997548 0.0613464   
     length 1.8912   
     axis 0 0 0   XYZ
    dof rx ry rz
    limits (-20.0 45.0)
           (-30.0 30.0)
           (-30.0 30.0)
  end
  begin
     id 15 
     name upperneck
     direction 0.0435909 0.997179 -0.0611028   
     length 1.8829   
     axis 0 0 0   XYZ
    dof rx ry rz
    limits (-20.0 45.0)
           (-30.0 30.0)
           (-30.0 30.0)
  end
  begin
     id 16
     name head
     direction 0.0175076 0.999444 -0.0283782  
     length 1.93197  
     axis 0 0 0   XYZ
    dof rx ry rz
    limits (-20.0 45.0)
           (-30.0 30.0)
           (-30.0 30.0)
  end
  begin
     id 17 
     name lclavicle
     direction 0.919164 0.389875 0.0559876  
     length 3.60004  
     axis 0 0 0   XYZ
    dof ry rz
    limits (-20.0 10.0)
           (0.0 20.0)
  end
  begin
     id 18 
     name lhumerus
     direction 1 -4.48958e-011 6.89191e-027   
     length 5.43301   
     axis 180 -30 -90   XYZ
    dof rx ry rz
    limits (-60.0 90.0)
           (-90.0 90.0)
           (-90.0 90.0)
  end
  begin
     id 19
     name lradius
     direction 1 -4.4897e-011 3.24727e-027   
     length 3.15936   
     axis 180 -30 -90   XYZ
    dof rx
    limits (-10.0 170.0)
  end
  begin
     id 20
     name lwrist
     direction 1 -4.4897e-011 9.00228e-027   
     length 1.57968   
     axis -6.29373e-015 90 90   XYZ
    dof ry
    limits (-180.0 0.0)
 end
  begin
     id 21 
     name lhand
     direction 1 -4.48968e-011 1.80042e-026   
     length 0.712827   
     axis -1.14882e-014 90 90   XYZ
    dof rx rz
    limits (-90.0 90.0)
           (-45.0 45.0)
  end
  begin
     id 22 
     name lfingers
     direction 1 -4.49019e-011 3.60267e-026   
     length 0.574699   
     axis -2.29769e-014 90 90   XYZ
    dof rx
    limits (0.0 90.0)
  end
  begin
     id 23
     name lthumb
     direction 0.707107 -6.3498e-011 0.707107   
     length 0.825157   
     axis -90 45 5.37419e-014   XYZ
    dof rx rz
    limits (-45.0 45.0)
           (-45.0 45.0)
  end
  begin
     id 24 
     name rclavicle
     direction -0.890334 0.455305 -0.00132111   
     length 3.51494  
     axis 0 0 0   XYZ 
    dof ry rz
    limits (-10.0 20.0)
           (-20.0 0.0)
  end
  begin
     id 25 
     name rhumerus
     direction -1 -4.48967e-011 5.07175e-028  
     length 5.34194   
     axis 180 30 90   XYZ
    dof rx ry rz
    limits (-90.0 60.0)
           (-90.0 90.0)
           (-90.0 90.0)
  end
  begin
     id 26 
     name rradius
     direction -1 -4.48955e-011 3.30467e-027   
     length 3.19351   
     axis 180 30 90   XYZ
    dof rx
    limits (-10.0 170.0)
  end
  begin
     id 27 
     name rwrist
     direction -1 -4.48968e-011 9.00208e-027   
     length 1.59676   
     axis -6.29373e-015 -90 -90   XYZ
    dof ry
    limits (-180.0 0.0)
  end
  begin
     id 28
     name rhand
     direction -1 -4.49e-011 1.80099e-026   
     length 0.743862   
     axis -1.14882e-014 -90 -90   XYZ
    dof rx rz
    limits (-90.0 90.0)
           (-45.0 45.0)
  end
  begin
     id 29
     name rfingers
     direction -1 -4.49009e-011 3.6023e-026   
     length 0.599721   
     axis -2.29769e-014 -90 -90   XYZ
    dof rx
    limits (0.0 90.0)
  end
  begin
     id 30
     name rthumb
     direction -0.707107 -6.35025e-011 0.707107   
     length 0.861083   
     axis -90 -45 -5.37419e-014   XYZ
    dof rx rz
    limits (-45.0 45.0)
           (-45.0 45.0)
  end
:hierarchy
  begin
    root lhipjoint rhipjoint lowerback
    lhipjoint lfemur
    lfemur ltibia
    ltibia lfoot
    lfoot ltoes
    rhipjoint rfemur
    rfemur rtibia
    rtibia rfoot
    rfoot rtoes
    lowerback upperback
    upperback thorax
    thorax lowerneck lclavicle rclavicle
    lowerneck upperneck
    upperneck head
    lclavicle lhumerus
    lhumerus lradius
    lradius lwrist
    lwrist lhand lthumb
    lhand lfingers
    rclavicle rhumerus
    rhumerus rradius
    rradius rwrist
    rwrist rhand rthumb
    rhand rfingers
  end

#!OML:ASF H:\Martial Arts Walks\Project 1\Capture day 1\Session 1\male.ASF
:FULLY-SPECIFIED
:DEGREES
1071
root -5.75895 12.0926 31.3576 -149.266 86.4556 -152.923
lowerback 18.0139 7.86145 1.7257
upperback -1.7548 10.7047 -1.35958
thorax -11.3735 4.88434 -5.33935
lowerneck -3.10416 10.7701 3.65513
upperneck 8.97908 14.7019 -3.55173
head 4.09556 7.2943 -1.07276
rclavicle 7.60973e-014 1.36043e-014
rhumerus -5.01818 50.4052 -67.0269
rradius 100.205
rwrist -1.43723
rhand -6.80847 -31.4337
rfingers 7.12502
rthumb 19.055 -60.5202
lclavicle 7.60973e-014 1.36043e-014
lhumerus -10.7985 -7.28609 65.5121
lradius 110.284
lwrist 37.2898
lhand -32.4877 21.2721
lfingers 7.12502
lthumb -5.71963 51.1749
rfemur -45.2192 -27.4471 0.966498
rtibia 92.5466
rfoot -36.3864 -6.37787
rtoes -36.081
lfemur -51.8745 26.7468 5.01573
ltibia 88.1939
lfoot -32.8801 -0.540147
ltoes -25.854
1072
root -5.74852 12.0776 31.354 -150.923 86.274 -154.572
lowerback 18.0169 7.98237 1.6521
upperback -1.84685 10.8397 -1.4701
thorax -11.4597 4.94302 -5.46441
lowerneck -3.12221 10.8774 3.71088
upperneck 9.04889 14.8296 -3.37211
head 4.11698 7.36541 -1.01278
rclavicle -1.06002e-013 6.4605e-015
rhumerus -4.05731 51.112 -66.528
rradius 100.635
rwrist -1.10536
rhand -7.06433 -31.6083
rfingers 7.12502
rthumb 18.8089 -60.7189
lclavicle -1.06002e-013 6.4605e-015
lhumerus -10.7051 -6.82541 65.1855
lradius 110.307
lwrist 37.5282
lhand -32.3262 21.3365
lfingers 7.12502
lthumb -5.56369 51.2435
rfemur -45.1055 -27.6949 0.840614
rtibia 92.6937
rfoot -36.4596 -6.35551
rtoes -35.7549
lfemur -52.0832 26.7594 4.93718
ltibia 88.3988
lfoot -32.9434 -0.647501
ltoes -25.6995
1073
root -5.73955 12.0609 31.3509 -151.96 86.0555 -155.609
lowerback 17.9738 8.05876 1.59717
upperback -1.87743 10.9216 -1.54792
thorax -11.4573 4.98275 -5.53586
lowerneck -3.20737 10.9523 3.82665
upperneck 9.03992 14.9182 -3.36256
head 4.14382 7.41116 -1.01702
rclavicle 1.73961e-013 -6.4605e-015
rhumerus -2.90261 51.7789 -65.9162
rradius 101.091
rwrist -0.771315
rhand -7.01443 -31.5408
rfingers 7.12502
rthumb 18.8569 -60.6468
lclavicle 1.73961e-013 -6.4605e-015
lhumerus -10.4913 -6.1981 64.8336
lradius 110.319
lwrist 38.0652
lhand -32.2367 21.4975
lfingers 7.12502
lthumb -5.4773 51.4068
rfemur -44.9948 -27.9415 0.774861
rtibia 92.8357
rfoot -36.5114 -6.59775
rtoes -35.9063
lfemur -52.3159 26.7642 4.92473
ltibia 88.6095
lfoot -33.0098 -0.78439
ltoes -25.6863
1074
root -5.73171 12.0438 31.3478 -151.951 85.8134 -155.589
lowerback 17.9544 8.02257 1.51174
upperback -1.96867 10.8642 -1.47219
thorax -11.5866 4.95495 -5.40325
lowerneck -2.87108 11.1278 3.70003
upperneck 8.87658 15.1713 -3.39221
head 4.02221 7.53862 -1.01773
rclavicle -8.38747e-014 -8.54774e-015
rhumerus -1.5038 52.8097 -65.1717
rradius 101.464
rwrist -0.53465
rhand -7.00404 -31.5556
rfingers 7.12502
rthumb 18.8669 -60.6606
lclavicle -8.38747e-014 -8.54774e-015
lhumerus -10.7708 -5.34449 64.5789
lradius 110.46
lwrist 38.4295
lhand -32.4174 21.7439
lfingers 7.12502
lthumb -5.65177 51.6485
rfemur -44.8712 -28.1167 0.780132
rtibia 92.9723
rfoot -36.6023 -6.7227
rtoes -35.9317
lfemur -52.5384 26.7723 5.01916
ltibia 88.821
lfoot -33.0604 -1.09199
ltoes -25.419
1075
root -5.72352 12.0219 31.3432 -152.854 85.6037 -156.477
lowerback 18.0487 8.17874 1.5242
upperback -2.05958 11.0623 -1.61609
thorax -11.6954 5.03464 -5.64136
lowerneck -3.00778 11.085 3.91695
upperneck 8.95709 15.0905 -3.29571
head 4.0848 7.5061 -1.01406
rclavicle 4.96092e-014 1.90833e-014
rhumerus -0.745616 53.0816 -64.8118
rradius 101.925
rwrist -0.107299
rhand -6.83007 -31.5185
rfingers 7.12502
rthumb 19.0342 -60.6072
lclavicle 4.96092e-014 1.90833e-014
lhumerus -10.5335 -5.17015 64.3604
lradius 110.506
lwrist 38.7093
lhand -32.462 21.7646
lfingers 7.12502
lthumb -5.6948 51.6681
rfemur -44.7586 -28.3271 0.666496
rtibia 93.1312
rfoot -36.6826 -6.89385
rtoes -36.0325
lfemur -52.795 26.8564 4.97324
ltibia 89.0642
lfoot -33.1842 -1.03521
ltoes -25.8807
1076
root -5.71653 12.0016 31.3393 -152.967 85.3809 -156.568
lowerback 18.0158 8.1179 1.35571
upperback -2.1216 10.9612 -1.46346
thorax -11.8201 4.99515 -5.36588
lowerneck -2.69101 11.2872 3.65382
upperneck 8.81222 15.3842 -3.28954
head 3.9588 7.65045 -0.978994
rclavicle 1.79552e-013 -9.34288e-015
rhumerus 0.605851 54.1613 -63.9524
rradius 102.395
rwrist 0.264665
rhand -6.88193 -32.0019
rfingers 7.12502
rthumb 18.9844 -61.0955
lclavicle 1.79552e-013 -9.34288e-015
lhumerus -10.8759 -4.23964 64.2033
lradius 110.656
lwrist 39.0899
lhand -32.4131 21.6564
lfingers 7.12502
lthumb -5.64758 51.5611
rfemur -44.6411 -28.5337 0.626493
rtibia 93.2912
rfoot -36.8142 -6.85432
rtoes -35.9205
lfemur -53.016 26.8972 5.05755
ltibia 89.3009
lfoot -33.2694 -1.3345
ltoes -25.7099
1077
root -5.7099 11.9803 31.3343 -152.906 85.1369 -156.52
lowerback 18.031 8.19094 1.43703
upperback -2.20201 11.0703 -1.53817
thorax -11.8807 5.0341 -5.5287
lowerneck -2.66615 11.3108 3.74896
upperneck 8.79571 15.4024 -3.20303
head 3.94923 7.66595 -0.967292
rclavicle -2.52829e-014 9.54166e-015
rhumerus 1.46882 54.4997 -63.596
rradius 102.791
rwrist 0.855657
rhand -6.34877 -31.2147
rfingers 7.12502
rthumb 19.4971 -60.2572
lclavicle -2.52829e-014 9.54166e-015
lhumerus -10.7979 -3.92741 64.0462
lradius 110.779
lwrist 39.419
lhand -32.1708 21.6993
lfingers 7.12502
lthumb -5.41365 51.6101
rfemur -44.5712 -28.7079 0.621066
rtibia 93.4669
rfoot -36.9047 -6.96854
rtoes -35.9351
lfemur -53.2972 26.9355 5.13017
ltibia 89.5481
lfoot -33.374 -1.57082
ltoes -25.6376
1078
root -5.70402 11.9562 31.3289 -153.675 84.9539 -157.316
lowerback 18.0771 8.37399 1.47515
upperback -2.26716 11.3056 -1.71482
thorax -11.9168 5.13299 -5.81426
lowerneck -2.83379 11.2002 4.09057
upperneck 8.83563 15.2297 -3.21603
head 4.02233 7.58694 -1.02188
rclavicle 6.29153e-014 7.15625e-015
rhumerus 1.8543 54.4905 -63.3266
rradius 103.373
rwrist 1.261
rhand -6.54921 -30.8924
rfingers 7.12502
rthumb 19.3043 -59.9542
lclavicle 6.29153e-014 7.15625e-015
lhumerus -10.3942 -3.92216 63.9216
lradius 110.831
lwrist 39.7794
lhand -31.917 21.7074
lfingers 7.12502
lthumb -5.16863 51.6243
rfemur -44.5607 -28.9742 0.522471
rtibia 93.6718
rfoot -36.9873 -7.14421
rtoes -36.0389
lfemur -53.6 27.0218 5.06453
ltibia 89.8082
lfoot -33.5056 -1.51605
ltoes -25.8702
1079
root -5.70007 11.9313 31.3237 -154.605 84.7524 -158.293
lowerback 18.0203 8.33557 1.33268
upperback -2.31027 11.2277 -1.67342
thorax -11.977 5.10352 -5.67139
lowerneck -2.65249 11.3629 3.84209
upperneck 8.69078 15.4474 -3.06704
head 3.90609 7.696 -0.94054
rclavicle -9.19379e-014 1.53064e-014
rhumerus 3.20015 55.1933 -62.6705
rradius 103.682
rwrist 1.60534
rhand -6.42987 -31.1327
rfingers 7.12502
rthumb 19.4191 -60.183
lclavicle -9.19379e-014 1.53064e-014
lhumerus -10.5833 -3.20179 63.851
lradius 110.973
lwrist 39.9855
lhand -32.0863 21.5083
lfingers 7.12502
lthumb -5.33207 51.4212
rfemur -44.5783 -29.2576 0.403613
rtibia 93.893
rfoot -37.0898 -7.08997
rtoes -35.8213
lfemur -53.9529 27.0428 4.98794
ltibia 90.0713
lfoot -33.6222 -1.62571
ltoes -25.919
1080
root -5.69471 11.9083 31.3175 -155.455 84.5977 -159.179
lowerback 17.9608 8.31651 1.12508
upperback -2.38864 11.1669 -1.58692
thorax -12.0967 5.08434 -5.45439
lowerneck -2.43199 11.4981 3.71731
upperneck 8.69805 15.6487 -3.06018
head 3.86222 7.79709 -0.921774
rclavicle -7.72775e-014 -4.77083e-015
rhumerus 4.21422 55.9631 -62.0709
rradius 104.112
rwrist 1.9666
rhand -6.67224 -30.9341
rfingers 7.12502
rthumb 19.186 -60.0078
lclavicle -7.72775e-014 -4.77083e-015
lhumerus -10.887 -2.53926 63.8662
lradius 111.141
lwrist 40.0487
lhand -32.9331 22.0029
lfingers 7.12502
lthumb -6.14961 51.8936
rfemur -44.5806 -29.4482 0.26426
rtibia 94.1136
rfoot -37.2024 -7.03973
rtoes -35.6012
lfemur -54.2322 27.0746 4.89806
ltibia 90.3257
lfoot -33.7086 -1.55556
ltoes -25.9667
1081
root -5.69171 11.8828 31.312 -156.203 84.4277 -160.014
lowerback 17.9802 8.57263 1.25671
upperback -2.46276 11.509 -1.87143
thorax -12.0771 5.22663 -5.92866
lowerneck -2.69714 11.2709 4.27814
upperneck 8.81155 15.3104 -3.10345
head 3.99767 7.63974 -1.01948
rclavicle -1.23818e-013 3.77691e-015
rhumerus 4.21157 55.5288 -62.225
rradius 104.569
rwrist 2.41086
rhand -6.781 -30.9798
rfingers 7.12502
rthumb 19.0814 -60.0638
lclavicle -1.23818e-013 3.77691e-015
lhumerus -10.3214 -2.87751 63.8751
lradius 111.209
lwrist 40.0933
lhand -32.8107 22.0537
lfingers 7.12502
lthumb -6.03149 51.9478
rfemur -44.6776 -29.7147 0.170664
rtibia 94.3599
rfoot -37.2715 -7.16925
rtoes -35.516
lfemur -54.614 27.1202 4.79532
ltibia 90.5918
lfoot -33.7978 -1.49659
ltoes -26.1607
1082
root -5.68766 11.8565 31.3064 -157.452 84.3202 -161.343
lowerback 17.8279 8.38571 0.881853
upperback -2.51188 11.2008 -1.65109
thorax -12.1928 5.10886 -5.39792
lowerneck -2.26284 11.5703 3.89014
upperneck 8.67376 15.7605 -3.21165
head 3.85857 7.85589 -1.00063
rclavicle -7.45443e-015 -8.54774e-015
rhumerus 5.79054 56.7713 -61.316
rradius 104.876
rwrist 2.6653
rhand -6.79056 -30.9633
rfingers 7.12502
rthumb 19.0722 -60.0482
lclavicle -7.45443e-015 -8.54774e-015
lhumerus -11.0415 -1.66844 63.9105
lradius 111.501
lwrist 39.994
lhand -32.0267 21.8561
lfingers 7.12502
lthumb -5.27448 51.7705
rfemur -44.7738 -29.9457 -0.0231013
rtibia 94.6127
rfoot -37.3862 -7.1113
rtoes -35.3067
lfemur -54.9671 27.2159 4.61217
ltibia 90.8601
lfoot -33.879 -1.52631
ltoes -26.1734
1083
root -5.68331 11.8331 31.2996 -158.206 84.1991 -162.163
lowerback 17.7795 8.40433 0.736478
upperback -2.56948 11.196 -1.63985
thorax -12.2624 5.11284 -5.30794
lowerneck -2.17628 11.6246 3.89895
upperneck 8.6686 15.8422 -3.25161
head 3.84882 7.89719 -1.01556
rclavicle 1.48095e-013 -2.98177e-015
rhumerus 6.58544 57.2697 -60.9123
rradius 105.214
rwrist 2.94343
rhand -7.38309 -31.1844
rfingers 7.12502
rthumb 18.5023 -60.3245
lclavicle 1.48095e-013 -2.98177e-015
lhumerus -11.148 -1.12449 63.981
lradius 111.614
lwrist 39.8319
lhand -32.1776 21.7751
lfingers 7.12502
lthumb -5.42017 51.6858
rfemur -44.8372 -30.1825 -0.166024
rtibia 94.8417
rfoot -37.4733 -7.24969
rtoes -35.3733
lfemur -55.2631 27.1917 4.51914
ltibia 91.1255
lfoot -33.933 -1.44527
ltoes -26.1305
1084
root -5.68144 11.8066 31.2934 -158.757 84.0967 -162.823
lowerback 17.699 8.47064 0.634249
upperback -2.62689 11.2593 -1.67758
thorax -12.2894 5.14684 -5.30493
lowerneck -2.18552 11.6527 3.93193
upperneck 8.71707 15.8772 -3.20172
head 3.86733 7.91715 -1.00045
rclavicle -2.43511e-014 4.09496e-014
rhumerus 7.18245 57.5361 -60.633
rradius 105.546
rwrist 3.40025
rhand -7.52976 -30.6547
rfingers 7.12502
rthumb 18.3613 -59.8081
lclavicle -2.43511e-014 4.09496e-014
lhumerus -11.1629 -0.692121 64.1068
lradius 111.685
lwrist 39.6078
lhand -31.9144 21.4176
lfingers 7.12502
lthumb -5.16604 51.3346
rfemur -44.9995 -30.3818 -0.266386
rtibia 95.0945
rfoot -37.5412 -7.19227
rtoes -35.0912
lfemur -55.6398 27.2705 4.3945
ltibia 91.4068
lfoot -34.0594 -1.39815
ltoes -26.3361
1085
root -5.67919 11.7777 31.2856 -160.015 84.066 -164.208
lowerback 17.6038 8.4344 0.391985
upperback -2.67055 11.1561 -1.7035
thorax -12.3337 5.11238 -5.16932
lowerneck -2.25586 11.8707 3.78308
upperneck 8.84057 16.1671 -3.02065
head 3.90279 8.0609 -0.895178
rclavicle -7.17613e-014 -3.97569e-015
rhumerus 8.11783 58.0829 -60.3007
rradius 105.819
rwrist 3.75395
rhand -8.08436 -30.7744
rfingers 7.12502
rthumb 17.8277 -59.9772
lclavicle -7.17613e-014 -3.97569e-015
lhumerus -11.2914 -0.0266249 64.0161
lradius 111.838
lwrist 39.4578
lhand -32.0615 21.24
lfingers 7.12502
lthumb -5.30811 51.1535
rfemur -45.2066 -30.6072 -0.463696
rtibia 95.3579
rfoot -37.583 -7.49215
rtoes -35.506
lfemur -55.9948 27.4146 4.18919
ltibia 91.6978
lfoot -34.1858 -1.60992
ltoes -26.1507
